<?xml version="1.0" encoding="utf-8"?>
<!-- Generator: Adobe Illustrator 24.1.1, SVG Export Plug-In . SVG Version: 6.00 Build 0)  -->
<svg version="1.1" id="Layer_1" xmlns="http://www.w3.org/2000/svg" xmlns:xlink="http://www.w3.org/1999/xlink" x="0px" y="0px"
	 viewBox="0 0 324 110.6" style="enable-background:new 0 0 324 110.6;" xml:space="preserve">
<g>
	<g>
		<linearGradient id="SVGID_1_" gradientUnits="userSpaceOnUse" x1="239.0955" y1="44.5677" x2="88.7658" y2="159.5567">
			<stop  offset="0" style="stop-color:#A02625"/>
			<stop  offset="1" style="stop-color:#235488"/>
		</linearGradient>
		<path style="fill:url(#SVGID_1_);" d="M324,110.6H0c1-0.1,2.1-0.2,3.2-0.3c18.8-1.4,35.8-8,50.8-19.4c8.5-6.5,15.5-14.3,21.5-23.1
			c8-11.9,16.3-23.7,24.4-35.6c4.9-7.2,9.9-14.3,14.8-21.5c3.2-4.8,7.4-8.3,13-9.8c2-0.5,4.1-0.9,6.1-0.9c9.5,0,18.9,0,28.3,0
			s18.9,0,28.3,0c2,0,4.1,0.4,6.1,0.9c5.6,1.5,9.8,5,13,9.8c4.9,7.2,9.8,14.3,14.8,21.5c8.1,11.9,16.4,23.7,24.4,35.6
			c6,8.8,13,16.6,21.5,23.1c15,11.5,31.9,18,50.8,19.4C321.9,110.4,322.9,110.5,324,110.6z"/>
	</g>
</g>
</svg>
