<?xml version="1.0" encoding="utf-8"?>
<!-- Generator: Adobe Illustrator 24.1.1, SVG Export Plug-In . SVG Version: 6.00 Build 0)  -->
<svg version="1.1" id="Layer_1" xmlns="http://www.w3.org/2000/svg" xmlns:xlink="http://www.w3.org/1999/xlink" x="0px" y="0px"
	 viewBox="0 0 205.9 98.4" style="enable-background:new 0 0 205.9 98.4;" xml:space="preserve">
<g>
	<g>
		<linearGradient id="SVGID_1_" gradientUnits="userSpaceOnUse" x1="53.5405" y1="49.3347" x2="146.1119" y2="-24.6434">
			<stop  offset="0" style="stop-color:#A02625"/>
			<stop  offset="1" style="stop-color:#235488"/>
		</linearGradient>
		<path style="fill:url(#SVGID_1_);" d="M205.9,0c-1.3,0.1-2.6,0.3-4,0.4c-8.9,1-17.2,4-24.9,8.7c-7.1,4.4-13.1,10.1-17.8,17
			c-5.4,7.9-10.8,15.7-16.2,23.6c-9.8,14.2-19.5,28.4-29.3,42.6c-1.8,2.7-4.1,4.8-7.3,5.7c-0.1,0-0.3,0.1-0.6,0.1c-2,0.4-4,0.4-6,0
			c-0.2,0-0.4-0.1-0.6-0.1c-3.2-0.9-5.4-3-7.3-5.7c-9.7-14.2-19.5-28.4-29.3-42.6C57.4,41.8,52,34,46.6,26.1
			c-4.8-6.9-10.7-12.5-17.8-17C21.2,4.4,12.9,1.5,3.9,0.4C2.6,0.3,1.3,0.1,0,0H205.9z"/>
	</g>
</g>
</svg>
